# xmcd
#
# Track frame offsets: 
#        150
#        14445
#        32025
#        47698
#        61048
#        75203
#        87330
#        98727
#        111027
#        126860
#        141753
#
# Disc length: 2073 seconds
#
# Revision: 0
# Processed by: cddbd v1.5.2PL0 Copyright (c) Steve Scherf et al.
# Submitted via: ExactAudioCopyFreeDBPlugin 1.0
#
DISCID=7f08170b
DTITLE=Buddy Miller and Jim Lauderdale - Buddy and Jim
DYEAR=2012
DGENRE=Country
TTITLE0=I Lost My Job Of Loving You
TTITLE1=The Train That Carried My Gal From Town
TTITLE2=That's Not Even Why I Love You
TTITLE3=South In New Orleans
TTITLE4=It Hurts Me
TTITLE5=Vampire Girl
TTITLE6=Forever And A Day
TTITLE7=Lonely One In This Town
TTITLE8=Looking For A Heartache Like You
TTITLE9=I Want To Do Everything For You
TTITLE10=The Wobble
EXTD=
EXTT0=
EXTT1=
EXTT2=
EXTT3=
EXTT4=
EXTT5=
EXTT6=
EXTT7=
EXTT8=
EXTT9=
EXTT10=
PLAYORDER=
